<svg width="160" height="160" viewBox="0 0 160 160" fill="none" xmlns="http://www.w3.org/2000/svg">
<g clip-path="url(#clip0_60_87)">
<path d="M39.9998 93.3334C47.3636 93.3334 53.3332 87.3638 53.3332 80C53.3332 72.6362 47.3636 66.6667 39.9998 66.6667C32.636 66.6667 26.6665 72.6362 26.6665 80C26.6665 87.3638 32.636 93.3334 39.9998 93.3334Z" fill="#FCFCFC"/>
<path d="M58.0533 38.1133L45.0266 51.18C43.36 52.8 40.9599 53.6467 38.6399 53.2267C36.6666 52.8667 30.9333 48.8467 29.72 48.0667C26.6533 46.1333 25.7199 42 27.7199 38.8467C29.6533 35.78 33.7866 34.8333 36.92 36.8467L39.0533 38.18L48.5866 28.6133C51.1866 26.0133 55.4533 26.0133 58.0533 28.6133C60.6533 31.2267 60.6533 35.5067 58.0533 38.1133Z" fill="#FCFCFC"/>
<path d="M133.333 46.6667C133.333 50.3333 130.333 53.3333 126.667 53.3333H73.2665C69.5998 53.2667 66.6665 50.3333 66.6665 46.6667C66.6665 43 69.5998 40.0667 73.2665 40H126.667C130.333 40 133.333 43 133.333 46.6667Z" fill="#FCFCFC"/>
<path d="M39.9998 133.333C47.3636 133.333 53.3332 127.364 53.3332 120C53.3332 112.636 47.3636 106.667 39.9998 106.667C32.636 106.667 26.6665 112.636 26.6665 120C26.6665 127.364 32.636 133.333 39.9998 133.333Z" fill="#FCFCFC"/>
<path d="M133.333 86.6667C133.333 90.3333 130.333 93.3333 126.667 93.3333H73.2665C69.5998 93.2667 66.6665 90.3333 66.6665 86.6667C66.6665 83 69.5998 80.0667 73.2665 80H126.667C130.333 80 133.333 83 133.333 86.6667ZM133.333 126.667C133.333 130.333 130.333 133.333 126.667 133.333H73.2665C69.5998 133.267 66.6665 130.333 66.6665 126.667C66.6665 123 69.5998 120.067 73.2665 120H126.667C130.333 120 133.333 123 133.333 126.667Z" fill="#FCFCFC"/>
<path d="M146.667 0H13.3333C6 0 0 6 0 13.3333V146.667C0 154 6 160 13.3333 160H146.667C154 160 160 154 160 146.667V13.3333C160 6 154 0 146.667 0ZM146.667 143.333C146.667 145.173 145.173 146.667 143.333 146.667H16.6667C14.8267 146.667 13.3333 145.173 13.3333 143.333V16.6667C13.3333 14.8267 14.8267 13.3333 16.6667 13.3333H143.333C145.173 13.3333 146.667 14.8267 146.667 16.6667V143.333Z" fill="#FCFCFC"/>
</g>
<defs>
<clipPath id="clip0_60_87">
<rect width="160" height="160" fill="white"/>
</clipPath>
</defs>
</svg>
