<svg width="160" height="160" viewBox="0 0 160 160" fill="none" xmlns="http://www.w3.org/2000/svg">
<path d="M115.769 84.2028C112.908 81.8083 108.643 82.1788 106.245 85.0374L101.758 90.3835V6.75875C101.758 3.0269 98.7335 0 94.9989 0C91.2643 0 88.2402 3.0269 88.2402 6.75875V90.3868L83.7552 85.0407C81.3574 82.1855 77.0989 81.8056 74.2315 84.2062C71.3729 86.6095 70.9997 90.8719 73.4003 93.7299L89.8245 113.302C89.8788 113.365 89.948 113.41 90.005 113.473C90.2038 113.693 90.4209 113.898 90.6468 114.085C90.7792 114.199 90.906 114.313 91.0445 114.416C91.2942 114.596 91.5595 114.75 91.8363 114.895C91.972 114.97 92.1016 115.052 92.2428 115.118C92.559 115.259 92.8935 115.362 93.2307 115.452C93.3481 115.482 93.4567 115.53 93.5774 115.557C94.0381 115.656 94.5144 115.714 95.0022 115.714C95.4934 115.714 95.9691 115.657 96.4299 115.557C96.5473 115.53 96.6586 115.482 96.776 115.452C97.1132 115.358 97.4477 115.259 97.7639 115.118C97.9057 115.051 98.0352 114.97 98.1704 114.895C98.4445 114.75 98.7125 114.594 98.9622 114.416C99.1007 114.313 99.2275 114.199 99.3599 114.085C99.5858 113.895 99.7995 113.693 99.9983 113.473C100.055 113.41 100.125 113.368 100.179 113.302L116.603 93.7299C119.004 90.8686 118.63 86.6068 115.769 84.2028Z" fill="#FCFCFC"/>
<path d="M142.691 160H47.3126C40.0627 160 34.165 154.102 34.165 146.856V51.475C34.165 44.2284 40.0627 38.3308 47.3126 38.3308H71.8153C75.5471 38.3308 78.574 41.3577 78.574 45.0895C78.574 48.8214 75.5471 51.8516 71.8153 51.8516H47.6831V146.482H142.317V51.8483H118.73C114.995 51.8483 111.971 48.8214 111.971 45.0862C111.971 41.3544 114.995 38.3275 118.73 38.3275H142.687C149.937 38.3275 155.835 44.2251 155.835 51.4717V146.855C155.838 154.102 149.94 160 142.691 160Z" fill="#FCFCFC"/>
</svg>
