<svg width="160" height="160" viewBox="0 0 160 160" fill="none" xmlns="http://www.w3.org/2000/svg">
<g clip-path="url(#clip0_60_35)">
<path d="M79.9964 0C35.8843 0 0.00292969 35.8885 0.00292969 80.001C0.00292969 124.113 35.8843 160 79.9964 160C124.11 160 159.997 124.112 159.997 80.001C159.997 35.8885 124.11 0 79.9964 0ZM79.9964 143.063C45.2255 143.063 16.9405 114.772 16.9405 80.001C16.9405 45.2301 45.2258 16.9373 79.9964 16.9373C114.769 16.9373 143.06 45.2301 143.06 80.001C143.06 114.772 114.768 143.063 79.9964 143.063Z" fill="#FCFCFC"/>
<path d="M88.1177 72.2313H71.8765C69.1514 72.2313 66.939 74.4438 66.939 77.1646V125.318C66.939 128.044 69.1514 130.252 71.8765 130.252H88.1177C90.8428 130.252 93.0552 128.043 93.0552 125.318V77.1649C93.0552 74.4441 90.8428 72.2313 88.1177 72.2313Z" fill="#FCFCFC"/>
<path d="M79.9965 29.7498C72.0082 29.7498 65.5288 36.2289 65.5288 44.2175C65.5288 52.2071 72.0079 58.6865 79.9965 58.6865C87.9864 58.6865 94.4661 52.2074 94.4661 44.2175C94.4658 36.2289 87.9867 29.7498 79.9965 29.7498Z" fill="#FCFCFC"/>
</g>
<defs>
<clipPath id="clip0_60_35">
<rect width="160" height="160" fill="white"/>
</clipPath>
</defs>
</svg>