<svg width="391" height="400" fill="none" xmlns="http://www.w3.org/2000/svg"><circle cx="195" cy="214.444" r="184.5" fill="#F3F0DD" stroke="#5EBA47"/><path d="M34.472 140.955c37.83-.346 75.51.088 113.39-.661a1.508 1.508 0 0 1 1.199.301 1.509 1.509 0 0 1 .579 1.092 1.514 1.514 0 0 1-.947 1.515c-.197.08-.409.118-.622.11-37.446.745-75.961 1.596-113.39.604-2.162-.056-2.424-2.942-.21-2.961Zm85.025-57.34c6.309 28.095-32.365 43.782-49.962 26.001-8.08-8.16-9.34-21.44-4.948-31.71 11.038-25.804 49.502-18.385 54.91 5.709Zm-3.502-3.164a23.456 23.456 0 0 0-13.6-13.454C85.9 61.22 69.928 64.53 65.154 82.969c-2.522 9.734.195 21.525 8.744 27.507 19.646 13.744 52.24-5.343 42.097-30.025ZM35.856 56.334c0-.938-1.523-.915-1.609-.011-2.053 21.604-1.036 44.239-.96 65.967.012 3.255 1.15 3.494 3.187 3.629 32.38 2.131 76.843.936 109.159-.497 1.173-.053 1.201-2.035 0-2.058-36.105-.675-74.085 1.808-109.609-.323.56-21.79-.053-44.79-.168-66.707Zm113.009 67.399c.123.962 2.031 1.091 2.012.014-.423-22.69-.229-45.552-.816-68.17-.08-3.108-.135-2.846-3.507-2.977-34.592-1.347-73.17-.682-107.619 1.302a.988.988 0 0 0 .092 1.973c36.13-.125 72.65-1.584 108.739-.414-1.316 17.976-1.142 50.65 1.099 68.272Zm-45.712-34.772c-4.244-2.488-10.209-6.387-14.966-8.993-3.174-1.738-3.423.642-1.149 2.213 3.204 2.218 9.151 5.06 13.259 7.928-4.712 2.905-9.228 5.967-14.023 8.86-.687-6.319-1.005-12.54-1.91-18.877-.16-1.136-1.74-.804-1.711.273.195 7.019 1.155 13.912 1.394 20.837a1.244 1.244 0 0 0 1.722.934A128.52 128.52 0 0 0 103.45 90.95a1.214 1.214 0 0 0-.297-1.989Zm117.22-17.477c5.169-.333 4.991-3.674-.336-3.302-16.289 1.138-32.964.827-49.288.408-7.183-.183-7.896 2.8-.524 3.08 15.943.604 34.287.832 50.148-.186Zm15.986 56.994c.283-5.37.249-10.753-.1-16.119-.074-.817-1.564-.929-1.703-.1-.698 4.176.186 11.773.016 16.309-.033.975 1.73.891 1.787-.09ZM36.542 15.989c20.641-.06 174.439-1.052 182.576-.723 17.898.725 18.963 21.7 16.813 22.033-2.288.355-215.48-1.03-217.729-1.212-1.568-.126-2.303-20.037 18.34-20.098Zm184.042 15.298a3.976 3.976 0 1 0-2.575-7.382 4.05 4.05 0 0 0-1.55 4.68 4.04 4.04 0 0 0 4.125 2.702Zm-17.812-1.312a4.02 4.02 0 0 0 5.007.929 4.193 4.193 0 0 0 1.64-4.74 4.061 4.061 0 0 0-4.301-2.615 3.908 3.908 0 0 0-3.239 4.572c.127.687.435 1.327.893 1.854Zm-14.731.244a4.195 4.195 0 0 0 4.794.427 3.853 3.853 0 0 0 1.891-3.56 3.844 3.844 0 0 0-2.325-3.294 4.451 4.451 0 0 0-4.829 1.603 3.771 3.771 0 0 0 .469 4.825Zm46.496 11.826c.344 17.144-1.173 34.295-.264 51.56.053 1.01 1.759.94 1.74-.04-.276-17.008 1.517-34.603.299-51.559-.072-1.02-1.795-.965-1.775.04Zm-12.369 12.198c-19.216.897-38.049-.38-57.18-.391-.753 0-.894 1.368-.161 1.679 5.883 2.541 48.715 2.25 57.423 1.595a1.444 1.444 0 0 0 1.293-1.48 1.445 1.445 0 0 0-1.375-1.403ZM31.776 168.354c13.703.072 28.07 1.331 38.985.534.993-.073 1.126-1.75.086-1.779-12.919-.372-25.288-1.203-37.513-1.472-8.273-.184-12.88-3.475-13.724-12.112-2.682-27.465.675-107.007.098-113.78a.993.993 0 0 0-1.955-.182c-.544 2.697-1.38 35.626-1.674 61.103-.184 16.142-.899 38.441.794 53.985.9 8.243 6.444 13.658 14.903 13.703Zm148.744-2.665c-23.448 1.445-50.419.495-74.608 1.105-1.041.027-1.044 1.806.011 1.834 23.955.639 50.713-.442 74.615-.417 1.431-.004 1.433-2.612-.018-2.522Zm-12.076-80.546c-2.77.657-2.406 2.448.391 2.45 4.426 0 9.208-.499 13.795-.551 2.932-.034 4.187-2.346-.587-2.718a63.707 63.707 0 0 0-13.599.82Zm75.148 118.004a54.565 54.565 0 0 0-9.343-16.942c-.586-.782.391-1.98 1.211-1.302a34.05 34.05 0 0 1 10.246 17.671 37.051 37.051 0 0 1 35.031 8.819c1.213-31.356-25.059-52.663-51.221-54.599-3.855 8.958-20.811 12.467-23.974 3.187-13.196 2.621-32.212 12.121-39.033 23.434a113.817 113.817 0 0 1 19.249.782 8.644 8.644 0 0 1 7.591 7.666 142.942 142.942 0 0 0 2.582 21.347c3.351-8.675 11.261-10.855 18.323-11.015 6.125-.143 20.957 2.95 29.338.952Zm-5.022-62.882a111.76 111.76 0 0 1 34.887-1.727c11.382 1.193 18.584 2.702 21.272 15.193 4.01 18.642-.166 48.626-6.588 66.571-5.529 15.445-15.656 13.984-29.169 15.011-1.038.078-1.315 1.867-.174 1.904 12.857.42 23.715-.088 29.611-10.557 9.089-16.133 12.383-52.199 9.718-70.656-1.748-12.093-6.881-17.913-19.216-19.52-12.644-1.648-28.709-2.006-40.9 1.933a.967.967 0 0 0 .565 1.848h-.006Zm58.046 3.255c8.27 2.989 17.216 6.199 23.227 12.946 13.533 15.188 6.297 40.146 2.933 57.895-3.746 19.714-7.322 39.46-11.052 59.174-1.173 6.164 1.173 8.08 2.264 2.569 3.91-19.669 7.585-39.434 11.339-59.137 3.568-18.703 10.891-43.571-1.529-60.409-6.328-8.579-16.715-11.904-26.541-14.663-1.052-.295-1.712 1.234-.635 1.625h-.006Zm-47.8 174.581c-.463 1.922 2.415 2.463 2.89.436 4.269-18.131 10.068-39.686 12.132-57.672 1.637-14.248.47-23.427-15.64-24.958-12.934-1.228-23.636 3.969-25.989 17.566-3.078 17.773-1.242 46.49-.603 65.461a.897.897 0 0 0 .889.868.896.896 0 0 0 .908-.849c.548-18.975-.317-38.499.819-57.295.782-12.875 3.863-22.408 18.768-23.161 16.371-.825 19.644 5.418 18.207 20.669-1.832 19.352-9.362 46.466-12.375 58.931l-.006.004Zm79.373-28.347c1.76-3.379 7.634-9.384 11.052-9.408 2.844-.015 1.016 5.572 1.918 8.721 7.339.646 8.694.558 13.614 5.359.63.612 1.386.291.849-.606a13.583 13.583 0 0 0-4.6-4.731c2.502-3.763 6.451-5.957 7.644-5.795 2.238.307-.561 7.869.877 13.865.978 4.049 2.716 8.753 1.035 13.501-1.308 3.693-3.414 7.056-9.775 9.068-5.842 1.845-16.901.442-21.883-2.323 7.275-4.416 4.632-15.264-6.525-11.699-15.126 4.835-22.745 5.926-38.663 3.254-1.122-.196-1.384 1.055-.215 1.276a73.805 73.805 0 0 0 38.42-2.101c6.037-1.907 10.293 1.878 7.402 5.896-2.933 4.072-10.782 5.577-15.541 6.301a141.17 141.17 0 0 1-36.234-.219c-12.316-1.484-6.019-32.895 26.08-37.184a37.475 37.475 0 0 1 23.818 4.748 32.955 32.955 0 0 0-4.469 13.582c-.067.932.956.715 1.173-.196a46.292 46.292 0 0 1 4.039-11.315l-.016.006Zm-32.208-3.001c-2.737 1.437-5.371 6.897-4.12 11.869.253.999 1.259 1.096 1.257.043 0-4.692 1.711-6.599 3.877-10.143.712-1.144.121-2.364-.999-1.775l-.015.006Zm9.538-2.231a12.83 12.83 0 0 0-5.136 7.341 16.11 16.11 0 0 0-.248 8.993c.217.954 1.241.882 1.304-.062.225-3.453.805-8.352 3.314-11.558a28.364 28.364 0 0 0 2.125-3.152c.735-1.226-.409-2.072-1.343-1.568l-.016.006Zm8.098 1.918a14.748 14.748 0 0 0-4.927 13.188c.195.978 1.23 1.142 1.347.073a18.465 18.465 0 0 1 5.583-11.019c2.779-2.805.577-4.508-1.988-2.248l-.015.006Zm38.292 17.943a2.291 2.291 0 0 1 2.991.586c.767 1.056 1.584.462 1.148-.844a3 3 0 0 0-2.195-1.751 3 3 0 0 0-2.681.834.707.707 0 0 0 .27 1.193c.159.049.33.041.483-.024l-.016.006Zm-7.642 2.367c.123.915 1.75 2.778 2.78 2.737 1.21-.056 2.907-1.325 2.788-2.541-.119-1.216-5.732-1.545-5.56-.201l-.008.005Zm-6.035-2.821a2.723 2.723 0 0 1 3.404-.455c1.008.749 1.91-.184 1.049-1.05a3.5 3.5 0 0 0-4.512-.457 3.51 3.51 0 0 0-1.091 1.21c-.52.87.575 1.311 1.166.746l-.016.006ZM123.127 211.1c.413-3.451.622-5.147-3.057-5.325-10.569-.513-18.082 2.15-24.569 7.204a33.232 33.232 0 0 0-12.924 23.46.872.872 0 0 0 .714.967.87.87 0 0 0 .998-.67 35.37 35.37 0 0 1 12.59-21.794 33.724 33.724 0 0 1 24.526-6.929 40.04 40.04 0 0 1-10.655 24.533c-7.429 7.916-13.593 9.678-23.45 11.91a.869.869 0 0 0-.616.941.867.867 0 0 0 .833.756c8.579-.107 18.944-5.943 24.768-12.05a41.586 41.586 0 0 0 10.842-23.003Zm74.261 107.902c-2.89-6.336-10.07-14.467-17.888-12.887-4.888.978-10.266 6.207-12.653 10.444-1.255 2.226-.69 4.784 2.127 5.137 6.53.589 13.092.759 19.644.511 7.388.089 14.766-.597 22.011-2.047 1.132-.297.571-1.84-.42-1.859-4.258-.083-8.551.394-12.821.701Zm-57.186 2.673c7.363.416 17.4.391 24.375-1.333 1.083-.268.6-1.805-.391-1.805s-2.025.035-3.036.071c-1.583-3.879-3.519-7.82-7.343-9.914-6.154-3.363-12.653 1.491-16.881 5.769-5.459 5.529-2.362 6.893 3.276 7.212Zm-79.103-87.047a.95.95 0 0 0 .899-.962.952.952 0 0 0-.922-.94 59.283 59.283 0 0 1-28.4-6.395c-12.988-6.983-20.751-17.46-25.56-31.066 7.98-.992 20.83-1.6 32.062 1.595 17.008 4.835 23.978 16.422 27.184 32.686.195.999 1.904.881 1.812-.174-2.823-32.688-32.164-39.447-60.192-36.438-3.097.335-3.736.509-2.505 3.758a64.213 64.213 0 0 0 12.796 21.644c10.393 10.844 27.65 18.234 42.826 16.292Zm324.174 89.17c-45.778-1.173-350.066.072-369.997.798-.95.035-.978 1.646-.014 1.675 24.097.745 48.267.278 72.372.227 24.105-.051 270.572.123 297.624-.714 1.126-.033 1.145-1.959.015-1.986Zm-291.22-4.319a388.59 388.59 0 0 0 5.933-39.641c2.766-.211 3.085-.508 3.65-3.41.529-2.379.905-4.79 1.126-7.217.215-3.457.716-4.966-3.236-5.05-16.277-.358-36.09-.511-52.176.586a.85.85 0 0 0-.795.875.852.852 0 0 0 .843.828c17.533 1.105 36.223-1.075 53.176.42a48.506 48.506 0 0 1-1.235 10.54c-17.4 1.206-33.937 1.034-51.333.821a72.703 72.703 0 0 1-2.59-11.069c-.168-.993-1.844-.958-1.818.097.14 3.821.849 7.599 2.103 11.21.632 1.893 2.018 2.192 4.038 2.178 15.64-.105 30.517.338 46.224-.664-1.623 15.282-4.106 25.332-5.768 36.992-.588 4.113 1.402 4.931 1.858 2.504Zm41.348-78.894c.919.02 1.29-1.462.309-1.661-5.914-1.205-12.585-1.621-17.574 2.428-6.23 5.055-3.881 15.429-2.774 22.496 2.086 13.308 8.993 42.06 14.248 55.843.436 1.143 2.301.391 1.98-.724-4.181-14.619-10.34-35.6-13.618-55.375-.804-4.852-2.573-13.114-.391-17.57 3.208-6.51 11.839-5.572 17.82-5.437Zm-83.72 43.448c.519 7.484 4.23 28.543 6.976 35.048a1 1 0 0 0 1.72.087.998.998 0 0 0 .159-.66c-2.837-11.525-4.825-20.137-7.114-34.774-.172-1.1-1.81-.78-1.74.299Zm22.288-71.848a.864.864 0 0 0 1.493-.866 39.974 39.974 0 0 1-4.3-27.538A37.928 37.928 0 0 1 97.54 155.59a64.254 64.254 0 0 1 1.775 25.806c-2.275 14.887-8.183 22.795-17.548 33.596-.694.802.428 2.04 1.285 1.369 6.045-4.661 11.556-13.437 14.484-20.449 5.13-12.28 6.356-27.693 2.002-40.428-.815-2.389-1.063-2.565-3.415-1.83a40.717 40.717 0 0 0-20.735 15.017 39.201 39.201 0 0 0-1.423 43.524l.004-.01Zm.362 49.579c.021 1.095 1.892 1.11 1.931 0 .035-.966.073-1.933.113-2.901 8.66-18.387 17.251-28.42 32.985-41.083.743-.598-.195-2.002-1.071-1.564-11.892 5.969-26.18 24.884-31.654 37.208 1.26-27.046 3.478-46.49 10.301-73.575.25-.989-1.417-1.45-1.744-.463-6.406 19.439-9.698 45.661-10.68 66.142-7.366-16.667-22.398-30.006-38.992-37.024-1.046-.442-1.613 1.173-.6 1.646 17.986 8.211 31.186 22.95 39.409 40.687-.084 3.637-.07 7.273-.002 10.927h.004Z" fill="#5EBA47"/><path d="M209.018 214.637c-1.603 2.09-2.942 2.326-3.975 5.306a10.024 10.024 0 0 0 .286 7.104.856.856 0 0 1-.405 1.108.85.85 0 0 1-1.124-.357 10.67 10.67 0 0 1-.964-8.532c.688-2.209 2.853-5.538 5.251-6.041a.926.926 0 0 1 .93.4.927.927 0 0 1 .001 1.012Zm5.536 4.563a.876.876 0 0 0 .135-.881.884.884 0 0 0-.703-.548c-2.518-.092-4.622 3.356-4.999 5.538a6.988 6.988 0 0 0 3.018 7.038.869.869 0 0 0 1.079-1.357 6.216 6.216 0 0 1-1.904-5.37c.516-2.962 2.563-3.624 3.374-4.42Zm63.225-8.295c-.195-1.136-1.955-1.007-1.955.078.049 7.454-2.465 15.208-15.411 17.773a56.073 56.073 0 0 1-41.004-8.309.82.82 0 0 0-.964 1.33c11.718 9.032 27.956 12.152 42.394 9.45 10.794-2.023 18.991-8.107 16.94-20.322Zm-54.673 22.042c-1.517.143-22.843.767-24.295.039-1.453-.727-7.234-19.272-8.635-37.209-.403-5.167-1.213-7.548-7.508-8.475-5.098-.753-45.275-.377-48.847 0-3.07.323-5.402 1.529-5.148 7.671.604 14.604 8.313 42.033 12.469 44.268 4.52 2.422 76.425 1.8 81.782.725 4.418-.888 3.613-7.341.182-7.019Zm-63.501-25.065c-5.728.208-4.215 12.317 2.665 12.047 6.15-.235 4.58-12.309-2.665-12.047Zm11.109 84.404c-.264-.978-1.785-.599-1.717.375.168 2.356 1.769 10.5 2.501 14.303.146.766 1.464.363 1.593-.34.303-1.66-1.777-12.108-2.377-14.338Zm10.705-.196c-.498-.782-1.849-.235-1.513.684a73.71 73.71 0 0 1 3.928 11.959c.195.952 1.73.714 1.695-.287a30.74 30.74 0 0 0-4.106-12.362l-.004.006Zm22.199 12.215a38.008 38.008 0 0 1-2.105-11.988.853.853 0 0 0-.786-.772.847.847 0 0 0-.886.655 25.866 25.866 0 0 0 1.056 11.313c1.173 3.76 3.798 6.942 3.179 10.948a.944.944 0 0 0 .611 1.072.938.938 0 0 0 1.148-.452c1.961-3.472-1.02-7.586-2.217-10.782v.006Zm-50.701-11.701a.849.849 0 0 0-1.482.03.847.847 0 0 0-.082.582c.708 3.324 3.697 9.715 1.695 12.708a.895.895 0 0 0 .051.987.902.902 0 0 0 .927.344c4.103-1.329.539-12.15-1.109-14.657v.006Zm17.957-17.309c-2.293-9.007-4.946-24.203 2.551-31.378-11.708-.174-21.468-.391-23.886-.391-4.44 0-9.863 1.052-11.222 7.388-1.663 7.765 4.198 25.384 9.928 38.216 7.604.447 15.229.421 22.83-.08a105.503 105.503 0 0 1-.209-13.761l.008.006Zm6.874-31.318c-12.512 8.133-3.5 34.889.252 45.552 8.113.455 16.246.427 24.355-.084-.921-3.955-1.083-14.69.692-16.95s7.111-2.043 15.073-1.937c.059-9.201-.379-23.046 5.189-27.406-4.964 1.123-26.821 1.066-45.561.82v.005Zm71.944-41.006c-11.873 4.612-18.09 3.031-30.107 2.471-8.268-.391-19.66 1.791-21.918 11.3a.858.858 0 0 0 1.644.491c3.762-9.81 15.249-10.017 24.094-9.222 8.844.796 19.229 1.521 27.116-3.476a.885.885 0 1 0-.82-1.569l-.009.005Zm-3.109-44.3c-9.233-7.57-11.865-24.232-15.524-32.134-7.277-15.718-22.895-20.622-39.048-16.991-12.59 2.829-12.416 16.305 6.125 14.752 9.891-.829 14.604-3.323 14.639-3.341 1.111 4.338 5.951 10.972 6.522 9.746 1.396-3.007 4.346-1.736 4.827 1.028.698 4.012-1.493 6.033-3.769 5.945-.811-.031 3.232 14.047 4.238 16.675.264.688 1.144.572 1.777.586a60.16 60.16 0 0 1 20.213 3.734Zm-2.584-53.979c-10.104-7.916-27.9-16.763-40.778-17.517a5.022 5.022 0 0 0-2.486.322c-11.73 3.236-28.403 11.42-37.732 19.175-.575.477-.123 1.302.469 1.48a188.717 188.717 0 0 1 18.538 5.853c1.128.473 1.601-1.325.525-1.789a97.407 97.407 0 0 0-16.858-5.292c10.468-6.946 24.565-15.49 36.86-18.043 12.002.75 29.19 8.982 38.811 16.248a165.884 165.884 0 0 0-20.723 5.809.83.83 0 0 0-.103 1.507c.186.103.405.13.611.076 7.961-2.121 14.426-4.371 22.516-5.972a1.082 1.082 0 0 0 .725-.825 1.077 1.077 0 0 0-.375-1.032ZM162.018 137.5a25.463 25.463 0 0 1 2.295 10.46c-.102.926-1.425.885-1.711.111-.447-1.22-.616-2.772-1.018-4.092-.147 2.36-.092 4.714-.221 7.07a.865.865 0 0 1-1.725.107 53.52 53.52 0 0 1-.375-7.001 27.627 27.627 0 0 0-1.538 5.023.81.81 0 0 1-1.467.277.806.806 0 0 1-.115-.608c.4-3.39 1.222-6.717 2.446-9.904.529-.966 2.414-3.075 3.429-1.443Zm.209-27.426a.826.826 0 0 1 .934-.535.829.829 0 0 1 .675.838 140.993 140.993 0 0 0-1.742 23.505c0 1.157-1.72 1.012-1.76-.104a107.024 107.024 0 0 1 1.893-23.704Zm32.306-9.118c-.168-.769-1.495-.931-1.595-.085-.151 1.275-.254 5.439-.223 6.663a.909.909 0 0 0 1.818.098c.15-2.223.15-4.454 0-6.676Zm18.506-1.173a24.788 24.788 0 0 0-16.813-1.465.808.808 0 1 0 .487 1.537 26.764 26.764 0 0 1 15.904 1.849 29.498 29.498 0 0 0-.092 6.581.892.892 0 0 0 1.783-.053c-.342-7.253.774-7.327-1.269-8.45Zm-3.497 54.974a21.39 21.39 0 0 0 7.771-5.804c.626-.714-.502-1.709-1.2-1.115-3.476 2.949-7.113 6.434-12.061 5.905-5.269-.565-6.799-5.934-7.892-10.292-.26-1.04-1.881-.782-1.66.3 1.056 5.12 3.013 10.791 8.886 11.765a10.87 10.87 0 0 0 4.459-.211c.268 1.734-.039 3.413.098 4.887a.834.834 0 0 0 1.391.471.84.84 0 0 0 .265-.522 21.945 21.945 0 0 0-.057-5.384Zm2.78-13.079a.864.864 0 0 0-1.468-.362.864.864 0 0 0-.227.558c.311 3.094-2.694 3.812-5.034 4.441a.811.811 0 0 0 .391 1.574c2.95-.275 7.214-1.736 6.338-6.211Zm-9.353-.518c-.626.178-1.287.2-1.924.065.266-.931.542-1.854.759-2.796a.812.812 0 0 0-1.55-.479 34.87 34.87 0 0 0-.884 2.737 1.614 1.614 0 0 0 .076 1.5 1.606 1.606 0 0 0 1.279.785 5.935 5.935 0 0 0 2.872-.158.9.9 0 0 0 .558-.454.887.887 0 0 0-.466-1.232.888.888 0 0 0-.72.032Zm-7.069-3.812c-.045-.71-.34-1.505-1.159-1.564-2.061-.141-1.265 3.65.346 3.458.866-.099.856-1.249.813-1.894Zm11.72-3.881a1.298 1.298 0 0 0-.749-.853 1.309 1.309 0 0 0-1.134.058 1.745 1.745 0 0 0-.406 2.213c.872 2.023 3.433 1.536 2.289-1.418Zm8.172-4.203a8.98 8.98 0 0 0-4.612-.01c-3.173-6.477-10.264-5.448-9.706 2.266a3.21 3.21 0 0 0-2.483.675 6.146 6.146 0 0 0-4.366-4.047c-4.659-.759-5.521 5.437-4.692 8.797.647 2.614 2.655 5.378 5.683 5.003 4.55-.563 3.666-7.486 3.799-7.664a1.96 1.96 0 0 1 2.244-.87c.587 3.216 3.128 7.007 6.88 6.118 3.603-.855 4.105-5.699 3.259-8.655a19.224 19.224 0 0 1 3.845-.028.833.833 0 0 0 .661-.74.836.836 0 0 0-.52-.845h.008Zm-7.257 8.303c2.606-1.222 1.76-6.108.792-7.894-.763-1.416-2.643-3.602-4.475-2.728-1.594.759-2.033 3.066-1.564 5.318.737 3.66 2.318 6.672 5.239 5.304h.008Zm-10.973-3.558c-.339-2.125-1.426-4.047-3.545-4.106-2.696-.07-2.907 4.528-2.502 6.43.363 1.697 1.708 3.99 3.749 3.84 2.475-.18 2.53-4.641 2.29-6.164h.008Z" fill="#343F4E"/></svg>